<svg width="1200" height="400" xmlns="http://www.w3.org/2000/svg">
  <defs>
    <linearGradient id="bg1" x1="0%" y1="0%" x2="100%" y2="100%">
      <stop offset="0%" style="stop-color:#667eea;stop-opacity:1" />
      <stop offset="100%" style="stop-color:#764ba2;stop-opacity:1" />
    </linearGradient>
  </defs>
  <rect width="100%" height="100%" fill="url(#bg1)"/>
  
  <!-- Woman silhouette holding bag -->
  <g transform="translate(150, 50)">
    <!-- Woman figure -->
    <ellipse cx="60" cy="40" rx="25" ry="35" fill="#ffffff" opacity="0.9"/>
    <!-- Head -->
    <circle cx="60" cy="25" r="15" fill="#ffffff" opacity="0.9"/>
    <!-- Hair -->
    <path d="M45 15 Q60 5 75 15 Q75 25 60 30 Q45 25 45 15" fill="#8B4513" opacity="0.8"/>
    <!-- Body -->
    <rect x="50" y="40" width="20" height="60" rx="10" fill="#ffffff" opacity="0.9"/>
    <!-- Arms -->
    <rect x="35" y="45" width="12" height="35" rx="6" fill="#ffffff" opacity="0.9"/>
    <rect x="73" y="45" width="12" height="35" rx="6" fill="#ffffff" opacity="0.9"/>
    <!-- Legs -->
    <rect x="52" y="100" width="8" height="40" rx="4" fill="#ffffff" opacity="0.9"/>
    <rect x="62" y="100" width="8" height="40" rx="4" fill="#ffffff" opacity="0.9"/>
    
    <!-- Bag -->
    <rect x="90" y="60" width="30" height="25" rx="5" fill="#FFD700" stroke="#FFA500" stroke-width="2"/>
    <rect x="95" y="55" width="20" height="8" rx="4" fill="#8B4513"/>
    <circle cx="92" cy="67" r="2" fill="#8B4513"/>
    <circle cx="118" cy="67" r="2" fill="#8B4513"/>
  </g>
  
  <!-- Text overlay -->
  <text x="600" y="120" font-family="Arial, sans-serif" font-size="48" font-weight="bold" fill="white" text-anchor="middle">
    Premium Bags Collection
  </text>
  <text x="600" y="180" font-family="Arial, sans-serif" font-size="24" fill="white" text-anchor="middle" opacity="0.9">
    Discover luxury handbags for every occasion
  </text>
  <text x="600" y="220" font-family="Arial, sans-serif" font-size="18" fill="white" text-anchor="middle" opacity="0.8">
    Starting from ₹999 | Free Delivery | 30-Day Returns
  </text>
  
  <!-- Decorative elements -->
  <circle cx="900" cy="80" r="30" fill="white" opacity="0.1"/>
  <circle cx="950" cy="150" r="20" fill="white" opacity="0.1"/>
  <circle cx="1050" cy="120" r="25" fill="white" opacity="0.1"/>
</svg>
